<svg width="30" height="30" viewBox="0 0 30 30" fill="none" xmlns="http://www.w3.org/2000/svg">
<path d="M27.0662 15.2959C26.949 15.017 26.673 14.8371 26.3824 14.7398L15.4148 10.3758C15.1445 10.2914 14.8549 10.2914 14.5846 10.3758L3.62754 14.7422C3.33457 14.8336 3.05156 15.0217 2.93555 15.3006C2.81953 15.5795 2.76328 15.8496 2.87696 16.1842L5.60332 23.1656C5.63807 23.2515 5.69919 23.324 5.77785 23.3729C5.85652 23.4218 5.94867 23.4444 6.04102 23.4375C7.60488 23.3391 8.98887 22.5451 10.0477 21.5332C10.1309 21.455 10.2408 21.4115 10.355 21.4115C10.4692 21.4115 10.5791 21.455 10.6623 21.5332C11.7943 22.6172 13.3008 23.4375 15 23.4375C16.6992 23.4375 18.1969 22.6172 19.3289 21.5309C19.4122 21.4526 19.5222 21.4091 19.6365 21.4091C19.7508 21.4091 19.8608 21.4526 19.9441 21.5309C21.0029 22.5434 22.3869 23.3391 23.9508 23.4375C24.0428 23.4445 24.1347 23.4221 24.2133 23.3736C24.2918 23.325 24.353 23.2528 24.3879 23.1674L27.1242 16.1854C27.2402 15.9053 27.1822 15.5754 27.0662 15.2959Z" stroke="#F57600" stroke-miterlimit="10"/>
<path d="M24.375 27.723C24.375 27.6511 24.3556 27.5805 24.3189 27.5186C24.2822 27.4568 24.2295 27.4059 24.1664 27.3714C22.5797 26.5189 21.133 25.214 20.4967 24.5589C20.4021 24.4598 20.276 24.3967 20.1399 24.3806C20.0039 24.3644 19.8665 24.3962 19.7514 24.4705C16.8023 26.3701 13.2117 26.3712 10.2621 24.4734C10.146 24.3984 10.0072 24.3665 9.86999 24.3832C9.73275 24.3999 9.60571 24.4641 9.51094 24.5648C8.87989 25.2257 7.44903 26.516 5.85293 27.3626C5.78961 27.3947 5.73547 27.4423 5.6956 27.5011C5.65574 27.5598 5.63144 27.6277 5.625 27.6984C5.62025 27.7586 5.62939 27.8191 5.65174 27.8753C5.67408 27.9314 5.70902 27.9816 5.75387 28.0221C5.79872 28.0626 5.85226 28.0923 5.91038 28.1088C5.9685 28.1253 6.02963 28.1282 6.08907 28.1173C7.31075 27.8724 8.49141 27.3158 9.61641 26.721C9.68858 26.683 9.7688 26.6629 9.85036 26.6623C9.93191 26.6617 10.0124 26.6806 10.0852 26.7175C11.6087 27.4928 13.2939 27.8969 15.0034 27.8971C16.7128 27.8973 18.3981 27.4936 19.9219 26.7187C19.9954 26.6814 20.0769 26.6623 20.1593 26.6629C20.2418 26.6635 20.3229 26.6839 20.3959 26.7222C21.515 27.3082 22.6939 27.8701 23.9115 28.1167C23.9689 28.1274 24.0279 28.1252 24.0843 28.1103C24.1407 28.0954 24.193 28.0682 24.2376 28.0306C24.2822 27.9929 24.3178 27.9459 24.342 27.8928C24.3662 27.8397 24.3782 27.7819 24.3773 27.7236L24.375 27.723Z" fill="#F57600"/>
<path d="M18.75 5.625V4.21875C18.7489 3.84612 18.6004 3.48907 18.3369 3.22558C18.0734 2.96209 17.7164 2.81358 17.3438 2.8125H12.6562C12.2836 2.81358 11.9266 2.96209 11.6631 3.22558C11.3996 3.48907 11.2511 3.84612 11.25 4.21875V5.625M24.375 13.6523V8.4375C24.3728 7.69224 24.0758 6.97813 23.5488 6.45115C23.0219 5.92418 22.3078 5.62716 21.5625 5.625H8.4375C7.69224 5.62716 6.97813 5.92418 6.45115 6.45115C5.92418 6.97813 5.62716 7.69224 5.625 8.4375V13.8281M15 10.7578V23.2295" stroke="#F57600" stroke-linecap="round" stroke-linejoin="round"/>
</svg>
