<svg width="173" height="24" viewBox="0 0 173 24" fill="none" xmlns="http://www.w3.org/2000/svg">
<path d="M11.5 6.60938C14.4531 6.60938 16.8906 9.04688 16.8906 12C16.8906 15 14.4531 17.3906 11.5 17.3906C8.5 17.3906 6.10938 15 6.10938 12C6.10938 9.04688 8.5 6.60938 11.5 6.60938ZM11.5 15.5156C13.4219 15.5156 14.9688 13.9688 14.9688 12C14.9688 10.0781 13.4219 8.53125 11.5 8.53125C9.53125 8.53125 7.98438 10.0781 7.98438 12C7.98438 13.9688 9.57812 15.5156 11.5 15.5156ZM18.3438 6.42188C18.3438 7.125 17.7812 7.6875 17.0781 7.6875C16.375 7.6875 15.8125 7.125 15.8125 6.42188C15.8125 5.71875 16.375 5.15625 17.0781 5.15625C17.7812 5.15625 18.3438 5.71875 18.3438 6.42188ZM21.9062 7.6875C22 9.42188 22 14.625 21.9062 16.3594C21.8125 18.0469 21.4375 19.5 20.2188 20.7656C19 21.9844 17.5 22.3594 15.8125 22.4531C14.0781 22.5469 8.875 22.5469 7.14062 22.4531C5.45312 22.3594 4 21.9844 2.73438 20.7656C1.51562 19.5 1.14062 18.0469 1.04688 16.3594C0.953125 14.625 0.953125 9.42188 1.04688 7.6875C1.14062 6 1.51562 4.5 2.73438 3.28125C4 2.0625 5.45312 1.6875 7.14062 1.59375C8.875 1.5 14.0781 1.5 15.8125 1.59375C17.5 1.6875 19 2.0625 20.2188 3.28125C21.4375 4.5 21.8125 6 21.9062 7.6875ZM19.6562 18.1875C20.2188 16.8281 20.0781 13.5469 20.0781 12C20.0781 10.5 20.2188 7.21875 19.6562 5.8125C19.2812 4.92188 18.5781 4.17188 17.6875 3.84375C16.2812 3.28125 13 3.42188 11.5 3.42188C9.95312 3.42188 6.67188 3.28125 5.3125 3.84375C4.375 4.21875 3.67188 4.92188 3.29688 5.8125C2.73438 7.21875 2.875 10.5 2.875 12C2.875 13.5469 2.73438 16.8281 3.29688 18.1875C3.67188 19.125 4.375 19.8281 5.3125 20.2031C6.67188 20.7656 9.95312 20.625 11.5 20.625C13 20.625 16.2812 20.7656 17.6875 20.2031C18.5781 19.8281 19.3281 19.125 19.6562 18.1875ZM71.83 12C71.83 17.8125 67.5644 22.6406 61.9863 23.4844V15.375H64.705L65.2206 12H61.9863V9.84375C61.9863 8.90625 62.455 8.01562 63.9081 8.01562H65.3613V5.15625C65.3613 5.15625 64.0488 4.92188 62.7363 4.92188C60.1113 4.92188 58.3769 6.5625 58.3769 9.46875V12H55.4238V15.375H58.3769V23.4844C52.7988 22.6406 48.58 17.8125 48.58 12C48.58 5.57812 53.7831 0.375 60.205 0.375C66.6269 0.375 71.83 5.57812 71.83 12ZM124.144 5.85938C124.707 7.82812 124.707 12.0469 124.707 12.0469C124.707 12.0469 124.707 16.2188 124.144 18.2344C123.863 19.3594 122.973 20.2031 121.894 20.4844C119.879 21 111.91 21 111.91 21C111.91 21 103.894 21 101.879 20.4844C100.801 20.2031 99.91 19.3594 99.6288 18.2344C99.0663 16.2188 99.0663 12.0469 99.0663 12.0469C99.0663 12.0469 99.0663 7.82812 99.6288 5.85938C99.91 4.73438 100.801 3.84375 101.879 3.5625C103.894 3 111.91 3 111.91 3C111.91 3 119.879 3 121.894 3.5625C122.973 3.84375 123.863 4.73438 124.144 5.85938ZM109.285 15.8438L115.941 12.0469L109.285 8.25V15.8438ZM172.615 9.84375H172.568C170.412 9.84375 168.443 9.1875 166.849 8.01562V16.4062C166.849 20.625 163.428 24 159.209 24C154.99 24 151.615 20.625 151.615 16.4062C151.615 12.1875 154.99 8.76562 159.209 8.76562C159.584 8.76562 159.912 8.8125 160.287 8.85938V13.0781C159.912 12.9375 159.584 12.8906 159.209 12.8906C157.287 12.8906 155.693 14.4844 155.693 16.4062C155.693 18.3281 157.287 19.9219 159.209 19.9219C161.131 19.9219 162.724 18.3281 162.724 16.4062V0H166.849C166.849 0.046875 166.849 0.046875 166.849 0.09375C166.849 0.421875 166.849 0.75 166.943 1.07812C167.224 2.625 168.162 3.98438 169.474 4.82812C170.365 5.4375 171.443 5.76562 172.568 5.76562C172.568 5.76562 172.568 5.76562 172.615 5.76562V9.84375Z" fill="#C6C8CB"/>
</svg>
